<?xml version="1.0" encoding="utf-8"?>
<!-- Generator: Adobe Illustrator 24.0.0, SVG Export Plug-In . SVG Version: 6.00 Build 0)  -->
<svg version="1.1" id="Layer_1" xmlns="http://www.w3.org/2000/svg" xmlns:xlink="http://www.w3.org/1999/xlink" x="0px" y="0px"
	 viewBox="0 0 1024 355.5" style="enable-background:new 0 0 1024 355.5;" xml:space="preserve">
<style type="text/css">
	.st0{fill:#002171;}
	.st1{fill:url(#SVGID_1_);}
	.st2{fill:url(#SVGID_2_);}
</style>
<g>
	<path class="st0" d="M395.74,171.52l-13.64,1.38c2.37,4.35,3.36,9.89,3.36,16.81c0,21.55-10.48,30.85-41.92,30.85
		c-7.51,0-14.04-0.59-19.18-1.58c-3.56,5.54-2.97,13.64,6.13,15.03l35.59,5.54c18.59,2.77,25.31,11.27,25.31,27.49
		c0,22.94-11.47,30.25-46.67,30.25c-35.59,0-47.26-7.32-47.26-29.66c0-10.88,4.75-16.41,15.42-22.15
		c-9.49-7.71-7.32-23.53,1.38-30.06c-9.1-4.75-12.66-13.05-12.66-25.51c0-22.34,10.28-31.24,42.12-31.24
		c9.49,0,17.2,0.79,23.14,2.57h29.86L395.74,171.52z M356.19,253.58l-31.04-3.95c-5.93,4.94-9.1,9.29-9.1,16.41
		c0,13.05,5.54,15.03,28.47,15.03c22.54,0,28.08-2.57,28.08-15.03C372.6,256.75,369.63,255.56,356.19,253.58z M367.66,189.71
		c0-12.26-5.93-16.41-24.12-16.41c-18.39,0-24.52,4.15-24.52,16.41c0,11.86,6.13,16.41,24.52,16.41
		C361.73,206.13,367.66,201.58,367.66,189.71z"/>
	<path class="st0" d="M503.89,209.09c0,32.43-9.49,51.02-43.5,51.02c-13.45,0-32.43-2.37-45.08-6.92V119.32h19.18v34.6
		c0,8.3-0.4,15.03-1.98,21.95c10.88-11.47,23.53-17.2,36.38-17.2C492.62,158.67,503.89,172.9,503.89,209.09z M484.12,209.09
		c-0.2-25.11-3.95-33.81-21.95-33.81c-9.69,0-17.4,5.34-27.88,13.45l0.2,52.4c8.7,2.17,17.8,3.16,25.51,2.97
		C477.4,243.89,483.92,235.19,484.12,209.09z"/>
	<path class="st0" d="M609.09,190.5v67.23h-15.03l-2.17-15.23c-7.12,7.32-20.96,17.01-38.56,17.01c-17.6,0-29.46-9.69-29.46-27.29
		v-10.08c0-15.42,9.89-24.12,27.29-24.12h38.76v-7.51c-0.2-11.86-4.35-15.62-19.18-15.62c-9.49,0-25.9,1.19-40.93,2.37l-1.78-14.04
		c13.64-2.37,33.42-4.55,46.86-4.55C597.23,158.67,609.09,166.18,609.09,190.5z M557.28,243.3c8.7,0,21.55-3.76,32.63-13.64v-17.2
		h-35.2c-8.9,0.4-11.47,4.94-11.47,12.26v5.14C543.24,239.34,547.59,243.3,557.28,243.3z"/>
	<path class="st0" d="M728.92,171.52l-13.64,1.38c2.37,4.35,3.36,9.89,3.36,16.81c0,21.55-10.48,30.85-41.92,30.85
		c-7.51,0-14.04-0.59-19.18-1.58c-3.56,5.54-2.97,13.64,6.13,15.03l35.59,5.54c18.59,2.77,25.31,11.27,25.31,27.49
		c0,22.94-11.47,30.25-46.67,30.25c-35.59,0-47.26-7.32-47.26-29.66c0-10.88,4.75-16.41,15.42-22.15
		c-9.49-7.71-7.32-23.53,1.39-30.06c-9.1-4.75-12.66-13.05-12.66-25.51c0-22.34,10.28-31.24,42.12-31.24
		c9.49,0,17.2,0.79,23.13,2.57h29.86L728.92,171.52z M689.37,253.58l-31.04-3.95c-5.93,4.94-9.1,9.29-9.1,16.41
		c0,13.05,5.54,15.03,28.47,15.03c22.54,0,28.08-2.57,28.08-15.03C705.78,256.75,702.82,255.56,689.37,253.58z M700.84,189.71
		c0-12.26-5.93-16.41-24.12-16.41c-18.39,0-24.52,4.15-24.52,16.41c0,11.86,6.13,16.41,24.52,16.41
		C694.91,206.13,700.84,201.58,700.84,189.71z"/>
	<path class="st0" d="M828.18,190.5v67.23h-15.03l-2.17-15.23c-7.12,7.32-20.96,17.01-38.56,17.01c-17.6,0-29.46-9.69-29.46-27.29
		v-10.08c0-15.42,9.89-24.12,27.29-24.12H809v-7.51c-0.2-11.86-4.35-15.62-19.18-15.62c-9.49,0-25.9,1.19-40.93,2.37l-1.78-14.04
		c13.64-2.37,33.42-4.55,46.86-4.55C816.32,158.67,828.18,166.18,828.18,190.5z M776.37,243.3c8.7,0,21.55-3.76,32.63-13.64v-17.2
		h-35.2c-8.9,0.4-11.47,4.94-11.47,12.26v5.14C762.33,239.34,766.68,243.3,776.37,243.3z"/>
	<path class="st0" d="M1001,185.36v72.37h-18.78V190.9c-0.2-11.27-3.76-16.02-14.04-16.02c-9.29,0-15.62,3.95-29.86,14.24v68.61
		h-18.39V190.9c0-11.86-4.55-16.02-14.04-16.02c-8.9,0-15.42,3.76-29.86,14.04v68.81h-18.98v-96.5h15.82l0.99,14.63
		c12.85-11.07,25.31-17.2,38.76-17.2c13.05,0,21.36,5.73,24.52,16.81c12.85-11.27,25.11-16.81,37.97-16.81
		C991.9,158.67,1001,167.96,1001,185.36z"/>
</g>
<g>
	<linearGradient id="SVGID_1_" gradientUnits="userSpaceOnUse" x1="24.9973" y1="165.998" x2="258.5669" y2="165.998">
		<stop  offset="0" style="stop-color:#002171"/>
		<stop  offset="1" style="stop-color:#0D47A1"/>
	</linearGradient>
	<path class="st1" d="M245.31,248.6h-5.11v-75.6c0-8.36-6.78-15.14-15.14-15.14h-63.02c-8.36,0-15.14,6.78-15.14,15.14v0
		c0,11.25-11.96,18.8-21.91,13.55c-7.84-4.14-11.76-11.26-11.76-21.38c0-9.02,3.2-16.26,9.59-21.74c6.39-5.47,14.88-8.21,25.46-8.21
		c12.79,0,26.5,2.91,41.13,8.73c6.52,2.59,13.97,0.47,18.04-5.25l27.9-39.29c5.49-7.73,2.57-18.48-6-22.52
		c-10.5-4.95-21.7-9.04-33.59-12.27c-18.13-4.92-35.66-7.38-52.58-7.38c-24.11,0-44.97,4.6-62.59,13.8
		c-17.62,9.2-31.1,22.18-40.44,38.92c-9.34,16.75-14.01,35.15-14.01,55.21c0,29.17,10.03,54.7,30.09,76.6
		c2.21,2.42,4.65,4.67,7.24,6.82H38.07c-7.2,0-13.07,5.87-13.07,13.07s5.87,13.07,13.07,13.07H245.5c7.2,0,13.07-5.87,13.07-13.07
		S252.69,248.6,245.31,248.6z M96.69,88.94c-2.23,0-4.45-1.48-5.94-3.71c-1.48-2.97,0-6.68,2.97-8.17
		c28.21-12.62,61.62-11.88,89.09,0c3.71,0.74,5.2,4.45,3.71,8.17c-1.48,2.97-5.2,4.45-8.17,2.97c-24.5-11.14-54.2-11.14-79.44,0
		C98.17,88.2,97.43,88.94,96.69,88.94z"/>
	<linearGradient id="SVGID_2_" gradientUnits="userSpaceOnUse" x1="109.4841" y1="299.9393" x2="170.1022" y2="299.9393">
		<stop  offset="0" style="stop-color:#002171"/>
		<stop  offset="1" style="stop-color:#0D47A1"/>
	</linearGradient>
	<path class="st2" d="M139.79,315.09L139.79,315.09c16.74,0,30.31-13.57,30.31-30.31h-60.62
		C109.48,301.52,123.05,315.09,139.79,315.09z"/>
</g>
</svg>
